#!OML:ASF F:\VICON\USERDATA\INSTALL\rory3\rory3.ASF
:FULLY-SPECIFIED
:DEGREES
403
root 0.391841 23.427 1.32567 -167.945 17.3222 183.934
lowerback 16.5964 2.251 -2.42355
upperback 1.5384 2.77267 0.361051
thorax -7.78662 1.51431 1.10957
lowerneck -23.416 1.53056 -4.54132
upperneck 31.3598 5.34887 0.600247
head 14.6513 2.24717 2.15935
rclavicle -3.77691e-015 -7.95139e-015
rhumerus 34.4909 22.92 -61.5365
rradius 96.7812
rwrist 40.6375
rhand -39.8661 4.8681
rfingers 7.12502
rthumb -12.8387 -24.7171
lclavicle -3.77691e-015 -7.95139e-015
lhumerus 1.38459 -11.3831 83.7684
lradius 87.9902
lwrist -38.547
lhand -32.5779 33.8155
lfingers 7.12502
lthumb -5.80667 63.716
rfemur -80.1099 -6.22651 41.4865
rtibia 96.6692
rfoot -7.70661 7.69359
rtoes 17.374
lfemur -15.8186 7.24671 -24.0801
ltibia 2.92593
lfoot 1.85292 6.18588
ltoes -7.315
404
root 0.394648 23.4254 1.3198 -168.02 17.2527 183.811
lowerback 16.7147 2.22853 -2.39819
upperback 1.59944 2.74889 0.320761
thorax -7.78154 1.5036 1.05446
lowerneck -23.4463 1.53707 -4.47601
upperneck 31.2498 5.35528 0.474037
head 14.6156 2.23683 2.09406
rclavicle 3.37934e-015 7.55382e-015
rhumerus 36.1727 22.1538 -60.9765
rradius 95.7355
rwrist 40.4875
rhand -39.3007 5.7754
rfingers 7.12502
rthumb -12.2936 -23.8432
lclavicle 3.37934e-015 7.55382e-015
lhumerus 1.36058 -11.304 83.9271
lradius 88.2568
lwrist -38.703
lhand -32.4707 33.9259
lfingers 7.12502
lthumb -5.70324 63.8292
rfemur -79.8368 -6.43716 41.7192
rtibia 96.711
rfoot -9.9115 6.23187
rtoes 14.5584
lfemur -15.705 7.14277 -24.1639
ltibia 2.8145
lfoot 1.91225 6.16012
ltoes -7.27485
405
root 0.399089 23.4314 1.31547 -168.056 17.1653 183.744
lowerback 16.728 2.21094 -2.27483
upperback 1.75153 2.75675 0.243027
thorax -7.61475 1.50582 0.902367
lowerneck -23.6389 1.48334 -4.55144
upperneck 31.0529 5.19953 0.626233
head 14.5645 2.17226 2.13442
rclavicle 2.67365e-014 -7.15625e-015
rhumerus 37.825 21.2724 -60.5487
rradius 94.6022
rwrist 40.793
rhand -38.6702 6.17554
rfingers 7.12502
rthumb -11.6856 -23.4786
lclavicle 2.67365e-014 -7.15625e-015
lhumerus 1.50606 -11.2402 84.036
lradius 88.5015
lwrist -38.8377
lhand -32.5089 33.8629
lfingers 7.12502
lthumb -5.74012 63.7651
rfemur -79.6192 -6.57375 41.9378
rtibia 96.7569
rfoot -10.4919 5.6695
rtoes 15.6476
lfemur -15.5317 7.03561 -24.1799
ltibia 2.51352
lfoot 2.08268 6.08966
ltoes -7.52145
406
root 0.399328 23.4334 1.31028 -168.04 17.1408 183.7
lowerback 16.7925 2.20746 -2.09261
upperback 1.82842 2.78592 0.154451
thorax -7.55505 1.51542 0.697065
lowerneck -23.7919 1.41566 -4.62642
upperneck 30.9829 5.02098 0.86037
head 14.5597 2.11326 2.20836
rclavicle -2.82274e-014 3.97569e-015
rhumerus 39.3255 20.5869 -60.1303
rradius 93.4791
rwrist 41.1402
rhand -37.6607 6.28596
rfingers 7.12502
rthumb -10.712 -23.4209
lclavicle -2.82274e-014 3.97569e-015
lhumerus 1.44527 -11.2041 84.1314
lradius 88.8116
lwrist -38.8718
lhand -32.6911 33.9485
lfingers 7.12502
lthumb -5.91602 63.8459
rfemur -79.5355 -6.64515 42.1929
rtibia 96.783
rfoot -9.9113 5.89384
rtoes 19.5835
lfemur -15.2101 6.9815 -24.2204
ltibia 1.82294
lfoot 2.4525 5.98989
ltoes -7.84221
407
root 0.398499 23.4329 1.30395 -168.042 17.2008 183.55
lowerback 16.8528 2.21645 -2.08236
upperback 1.87359 2.79944 0.100913
thorax -7.53654 1.52248 0.629508
lowerneck -23.7474 1.44297 -4.69037
upperneck 30.8431 5.01336 0.982995
head 14.4803 2.11974 2.26033
rclavicle -2.68359e-015 -1.94809e-014
rhumerus 40.9108 20.1273 -59.521
rradius 92.3236
rwrist 40.9585
rhand -36.1767 6.60581
rfingers 7.12502
rthumb -9.28027 -23.1699
lclavicle -2.68359e-015 -1.94809e-014
lhumerus 1.32151 -11.0362 84.3216
lradius 89.1371
lwrist -39.0456
lhand -32.7204 34.0017
lfingers 7.12502
lthumb -5.94423 63.8983
rfemur -79.5617 -6.65019 42.3224
rtibia 96.8021
rfoot -9.60899 5.82675
rtoes 21.0501
lfemur -14.6984 6.9813 -24.398
ltibia 0.776964
lfoot 2.90594 5.95622
ltoes -7.56323
408
root 0.399748 23.4306 1.30068 -168.039 17.3077 183.391
lowerback 16.9388 2.27198 -2.1329
upperback 1.90959 2.86161 0.0396808
thorax -7.54595 1.55479 0.575382
lowerneck -23.7003 1.46768 -4.71251
upperneck 30.6773 4.99055 1.07748
head 14.3919 2.12051 2.28972
rclavicle -1.36167e-014 4.37326e-015
rhumerus 42.4251 19.6146 -58.9715
rradius 91.0889
rwrist 40.8292
rhand -34.5641 6.93647
rfingers 7.12502
rthumb -7.72408 -22.9025
lclavicle -1.36167e-014 4.37326e-015
lhumerus 1.21965 -10.972 84.4963
lradius 89.5047
lwrist -39.2411
lhand -32.6242 34.0301
lfingers 7.12502
lthumb -5.85145 63.9293
rfemur -79.627 -6.51553 42.3666
rtibia 96.8583
rfoot -10.2403 4.87711
rtoes 18.5504
lfemur -14.3511 7.0265 -24.5906
ltibia 1.07344e-014
lfoot 3.3174 6.05957
ltoes -6.78429
409
root 0.402698 23.4334 1.29937 -167.985 17.3466 183.363
lowerback 17.0194 2.33025 -2.02945
upperback 1.92424 2.95589 0.00309186
thorax -7.5702 1.59768 0.452688
lowerneck -23.7349 1.4303 -4.68361
upperneck 30.6732 4.89804 1.14133
head 14.3989 2.09213 2.29406
rclavicle -6.7388e-014 3.97569e-015
rhumerus 43.7365 19.0921 -58.5587
rradius 89.831
rwrist 40.8781
rhand -32.908 6.94684
rfingers 7.12502
rthumb -6.12542 -22.9446
lclavicle -6.7388e-014 3.97569e-015
lhumerus 1.13222 -10.9969 84.6967
lradius 89.8468
lwrist -39.2853
lhand -32.6058 34.0731
lfingers 7.12502
lthumb -5.83364 63.9728
rfemur -79.6588 -6.35491 42.502
rtibia 96.8602
rfoot -11.0383 3.71254
rtoes 15.6771
lfemur -14.4277 7.04081 -24.6182
ltibia -1.11319e-014
lfoot 3.39427 6.15033
ltoes -6.79599
410
root 0.406676 23.4335 1.29843 -167.951 17.4132 183.267
lowerback 17.1277 2.39885 -2.00046
upperback 1.9371 3.04756 -0.0624585
thorax -7.61312 1.64129 0.340194
lowerneck -23.6723 1.45244 -4.39469
upperneck 30.5557 4.86817 0.926423
head 14.3501 2.08269 2.14687
rclavicle 1.97791e-014 -1.19271e-015
rhumerus 44.9539 18.6387 -58.147
rradius 88.5965
rwrist 40.7323
rhand -30.9187 6.70452
rfingers 7.12502
rthumb -4.20467 -23.2337
lclavicle 1.97791e-014 -1.19271e-015
lhumerus 1.09618 -10.9818 84.8923
lradius 90.1164
lwrist -39.1494
lhand -32.8394 33.8067
lfingers 7.12502
lthumb -6.05919 63.7001
rfemur -79.7629 -6.21327 42.571
rtibia 96.8317
rfoot -11.1527 3.11043
rtoes 14.4658
lfemur -14.507 7.06709 -24.7199
ltibia -4.41302e-014
lfoot 3.53912 6.23251
ltoes -6.75761
411
root 0.408118 23.4336 1.29528 -167.916 17.4796 183.037
lowerback 17.1936 2.43556 -2.06893
upperback 1.96874 3.0784 -0.164734
thorax -7.61348 1.65836 0.259973
lowerneck -23.7436 1.50687 -4.1671
upperneck 30.4779 4.88151 0.804434
head 14.3405 2.09323 2.05974
rclavicle -2.19657e-014 -1.59028e-015
rhumerus 46.2531 18.2923 -57.795
rradius 87.2927
rwrist 40.536
rhand -28.8921 6.65789
rfingers 7.12502
rthumb -2.2475 -23.31
lclavicle -2.19657e-014 -1.59028e-015
lhumerus 1.15306 -10.7967 85.1159
lradius 90.3308
lwrist -39.031
lhand -32.965 33.5566
lfingers 7.12502
lthumb -6.18046 63.4465
rfemur -79.9752 -6.10755 42.4358
rtibia 96.8138
rfoot -10.7005 3.11903
rtoes 14.6853
lfemur -14.6233 7.05447 -24.9772
ltibia 3.4191e-014
lfoot 3.78203 6.19568
ltoes -7.67105
412
root 0.410985 23.4352 1.29116 -167.873 17.4983 182.943
lowerback 17.216 2.44746 -1.99783
upperback 2.00892 3.1082 -0.207901
thorax -7.57681 1.67145 0.16671
lowerneck -23.7063 1.51655 -4.16377
upperneck 30.3897 4.83129 0.92759
head 14.2897 2.08949 2.09503
rclavicle -2.16675e-014 -1.03368e-014
rhumerus 47.5561 18.0545 -57.4664
rradius 86.0105
rwrist 40.216
rhand -26.4726 6.93842
rfingers 7.12502
rthumb 0.0893066 -23.0413
lclavicle -2.16675e-014 -1.03368e-014
lhumerus 1.13597 -10.5771 85.363
lradius 90.5598
lwrist -38.9917
lhand -32.8458 33.4984
lfingers 7.12502
lthumb -6.06536 63.3916
rfemur -80.0465 -5.95542 42.3029
rtibia 96.7967
rfoot -10.4525 3.12459
rtoes 15.4755
lfemur -14.6944 7.03349 -25.0666
ltibia -3.65764e-014
lfoot 3.95344 6.10036
ltoes -8.2994
413
root 0.416039 23.4413 1.2873 -167.813 17.4843 182.994
lowerback 17.1762 2.44777 -1.84765
upperback 2.06005 3.14497 -0.166658
thorax -7.49507 1.68658 0.120693
lowerneck -23.5545 1.52196 -4.11609
upperneck 30.3022 4.77309 1.0131
head 14.2179 2.08591 2.10407
rclavicle 1.86858e-014 -1.96797e-014
rhumerus 48.7469 17.9045 -57.1567
rradius 84.7638
rwrist 40.0411
rhand -23.6698 6.9364
rfingers 7.12502
rthumb 2.79628 -23.025
lclavicle 1.86858e-014 -1.96797e-014
lhumerus 1.04533 -10.3056 85.6774
lradius 90.8212
lwrist -39.0888
lhand -32.3009 32.9536
lfingers 7.12502
lthumb -5.53929 62.8612
rfemur -80.0149 -5.78809 42.274
rtibia 96.7709
rfoot -10.6441 2.79672
rtoes 15.1439
lfemur -14.734 7.02324 -24.9756
ltibia 2.70347e-014
lfoot 3.97842 6.14556
ltoes -7.6767
